# xmcd
#
# Track frame offsets: 
#        150
#        28808
#        50967
#        88926
#        120250
#        135997
#        166868
#        212122
#        247441
#        265268
#        284498
#        302019
#        325828
#        342364
#
# Disc length: 4773 seconds
#
# Revision: 2
# Processed by: cddbd v1.5.2PL0 Copyright (c) Steve Scherf et al.
# Submitted via: ExactAudioCopyFreeDBPlugin 1.0
#
DISCID=d712a30e
DTITLE=Chet Baker - Chet is Back!
DYEAR=1962
DGENRE=Jazz
TTITLE0=Well, You Needn't
TTITLE1=These Foolish Things
TTITLE2=Barbados
TTITLE3=Star Eyes
TTITLE4=Over the Rainbow
TTITLE5=Pent-Up House
TTITLE6=Ballata in forma di blues
TTITLE7=Blues in the Closet
TTITLE8=Chetty's Lullaby
TTITLE9=So che ti perderò
TTITLE10=Motivo su raggio di Luna
TTITLE11=Il mio domani
TTITLE12=Autumn in New York
TTITLE13=Marilyn
EXTD=YEAR: 1962
EXTT0=
EXTT1=
EXTT2=
EXTT3=
EXTT4=
EXTT5=
EXTT6=
EXTT7=
EXTT8=
EXTT9=
EXTT10=
EXTT11=
EXTT12=
EXTT13=
PLAYORDER=
